<svg xmlns="http://www.w3.org/2000/svg" width="26" height="20" viewBox="0 0 26 20"><defs><linearGradient id="nsrpa" x1="13" x2="13" y1="2" y2="18" gradientUnits="userSpaceOnUse"><stop offset="0" stop-color="#876532"/><stop offset=".51" stop-color="#ffe39e"/><stop offset="1" stop-color="#866430"/></linearGradient><filter id="nsrpb" width="200%" height="200%" x="-50%" y="-50%"><feGaussianBlur in="SourceGraphic" result="FeGaussianBlur1035Out" stdDeviation="0 0"/></filter><mask id="nsrpc"><path fill="#fff" d="M1.997 12.825h13.881V18l8.125-8-8.125-8.002v5.176H1.997z"/></mask><clipPath id="nsrpd"><path fill="#fff" d="M0 20V0h26v20zm1.997-7.175h13.881V18l8.125-8-8.125-8.002v5.176H1.997z"/></clipPath></defs><g><g><path d="M1.997 12.825h13.881V18l8.125-8-8.125-8.002v5.176H1.997z"/><path fill="url(#nsrpa)" d="M1.997 12.825h13.881V18l8.125-8-8.125-8.002v5.176H1.997z"/><path fill="#fff7d7" fill-opacity=".6" d="M2 20v-5.175h13.878V20zM2 0h22v11.997l-8.122-7.998v5.176H2zm22 20h-8.12L24 12.003zM1.997 14.825H2v-5.65h-.003zM15.878 20L15.88 20zm8.125-8L24 11.996v.006z" filter="url(#nsrpb)" mask="url(&quot;#nsrpc&quot;)"/><path fill="none" stroke="#050707" stroke-linecap="round" stroke-linejoin="round" stroke-miterlimit="50" stroke-width="4" d="M1.997 12.825v0h13.881V18l8.125-8v0l-8.125-8.002v5.176H1.997v0z" clip-path="url(&quot;#nsrpd&quot;)"/></g></g></svg>